#!OML:ASF H:\Punching\Project 1\Capture day 1\Session 1\female.ASF
:FULLY-SPECIFIED
:DEGREES
1312
root 1.18418 14.6724 4.05516 15.7635 -0.629976 6.41379
lowerback -3.39106 -3.88029 -0.919334
upperback -7.89852 -5.3515 -2.27398
thorax -6.46838 -2.70803 -1.72991
lowerneck -8.05146 10.6976 13.701
upperneck 33.2839 18.9162 -16.5831
head 16.4613 8.03557 -6.20044
rclavicle -8.36759e-015 6.16232e-015
rhumerus 23.7178 25.6629 -57.6541
rradius 124.984
rwrist -18.9612
rhand -29.8131 8.10982
rfingers 7.12502
rthumb -3.137 -21.8468
lclavicle -8.36759e-015 6.16232e-015
lhumerus -3.31667 -11.826 66.8879
lradius 140.352
lwrist 2.56458
lhand -25.5287 3.46555
lfingers 7.12502
lthumb 1.00097 33.4429
rfemur -50.9519 -1.09478 16.3702
rtibia 61.7585
rfoot -21.454 -18.8482
rtoes 6.79597
lfemur -1.8171 -1.26418 -13.105
ltibia 44.8413
lfoot -6.67648 23.2146
ltoes -3.74291
1313
root 1.23188 14.6488 3.99129 16.1634 -0.0311072 6.48864
lowerback -3.35655 -3.9793 -1.09564
upperback -7.98261 -5.48417 -2.19159
thorax -6.55742 -2.75962 -1.5385
lowerneck -8.32538 10.613 13.6129
upperneck 33.0999 18.7185 -16.5277
head 16.3608 7.93627 -6.17418
rclavicle -7.22644e-014 -2.45499e-014
rhumerus 23.8204 25.3497 -57.4951
rradius 125.059
rwrist -18.9773
rhand -29.8396 8.01636
rfingers 7.12502
rthumb -3.16256 -21.9399
lclavicle -7.22644e-014 -2.45499e-014
lhumerus -3.0898 -12.0384 67.1754
lradius 140.31
lwrist 2.52594
lhand -25.5278 3.42187
lfingers 7.12502
lthumb 1.00181 33.3993
rfemur -51.7971 -1.60828 16.1504
rtibia 62.1838
rfoot -21.3402 -18.9283
rtoes 6.7264
lfemur -0.889843 -1.80589 -12.8027
ltibia 42.0351
lfoot -7.43969 23.6112
ltoes -4.184
1314
root 1.28239 14.6255 3.92582 16.568 0.564779 6.57245
lowerback -3.34076 -4.07035 -1.25599
upperback -8.05854 -5.6054 -2.11156
thorax -6.62752 -2.80638 -1.36033
lowerneck -8.58946 10.5246 13.5208
upperneck 32.8955 18.5168 -16.4815
head 16.2488 7.8351 -6.15161
rclavicle 5.75357e-014 1.41137e-014
rhumerus 23.9246 25.0289 -57.3479
rradius 125.121
rwrist -18.9596
rhand -29.8688 7.96026
rfingers 7.12502
rthumb -3.19071 -21.9956
lclavicle 5.75357e-014 1.41137e-014
lhumerus -2.85178 -12.2489 67.46
lradius 140.265
lwrist 2.48933
lhand -25.5238 3.40124
lfingers 7.12502
lthumb 1.00567 33.3786
rfemur -52.6438 -2.15749 15.9229
rtibia 62.5914
rfoot -21.2095 -18.98
rtoes 6.66509
lfemur -0.0828769 -2.485 -12.5681
ltibia 39.368
lfoot -8.10393 24.0606
ltoes -4.65655
1315
root 1.33569 14.6028 3.85884 16.9761 1.15323 6.66195
lowerback -3.33689 -4.1556 -1.40174
upperback -8.13242 -5.71821 -2.0288
thorax -6.68872 -2.8496 -1.18858
lowerneck -8.83135 10.4332 13.4239
upperneck 32.6667 18.3137 -16.4471
head 16.1216 7.73357 -6.13351
rclavicle -6.40056e-014 -2.62396e-014
rhumerus 24.0344 24.7169 -57.2123
rradius 125.174
rwrist -18.93
rhand -29.9011 7.9532
rfingers 7.12502
rthumb -3.22199 -22.0022
lclavicle -6.40056e-014 -2.62396e-014
lhumerus -2.63434 -12.457 67.753
lradius 140.228
lwrist 2.44187
lhand -25.5132 3.39269
lfingers 7.12502
lthumb 1.01592 33.37
rfemur -53.4884 -2.73309 15.6896
rtibia 62.9791
rfoot -21.0607 -19.0059
rtoes 6.61282
lfemur 0.60253 -3.3031 -12.3981
ltibia 36.8693
lfoot -8.69878 24.5678
ltoes -5.06305
1316
root 1.39195 14.5808 3.79054 17.3816 1.73346 6.76487
lowerback -3.35054 -4.23453 -1.53739
upperback -8.19603 -5.82158 -1.94862
thorax -6.72918 -2.88885 -1.02719
lowerneck -9.05486 10.3384 13.3307
upperneck 32.4119 18.1086 -16.4302
head 15.9813 7.63163 -6.12376
rclavicle 6.11837e-014 2.15681e-014
rhumerus 24.1569 24.4038 -57.0876
rradius 125.222
rwrist -18.9077
rhand -29.9282 7.96666
rfingers 7.12502
rthumb -3.2481 -21.9883
lclavicle 6.11837e-014 2.15681e-014
lhumerus -2.41027 -12.6581 68.0403
lradius 140.186
lwrist 2.39109
lhand -25.4933 3.38357
lfingers 7.12502
lthumb 1.03514 33.3608
rfemur -54.3222 -3.3362 15.4408
rtibia 63.3464
rfoot -20.8929 -19.0068
rtoes 6.55895
lfemur 1.17119 -4.25626 -12.2987
ltibia 34.5615
lfoot -9.20036 25.1106
ltoes -5.32948
